PathFileType	4	(X/Y/Z)	0_coords_data.trc
DataRate	CameraRate	NumFrames	NumMarkers	Units	OrigDataRate	OrigDataStartFrame	OrigNumFrames
30.0	30.0	7	21	m	30.0	11	72
Frame#	Time	THUMB_TIP	THUMB_IP	THUMB_MCP	THUMB_CMC	INDEX_TIP	INDEX_DIP	INDEX_PIP	INDEX_MCP	MIDDLE_TIP	MIDDLE_DIP	MIDDLE_PIP	MIDDLE_MCP	RING_TIP	RING_DIP	RING_PIP	RING_MCP	PINKY_TIP	PINKY_DIP	PINKY_PIP	PINKY_MCP	WRIST
X1	Y1	Z1	X2	Y2	Z2	X3	Y3	Z3	X4	Y4	Z4	X5	Y5	Z5	X6	Y6	Z6	X7	Y7	Z7	X8	Y8	Z8	X9	Y9	Z9	X10	Y10	Z10	X11	Y11	Z11	X12	Y12	Z12	X13	Y13	Z13	X14	Y14	Z14	X15	Y15	Z15	X16	Y16	Z16	X17	Y17	Z17	X18	Y18	Z18	X19	Y19	Z19	X20	Y20	Z20	X21	Y21	Z21
10	0.3333333333333333	-0.0033761401176452626	-0.09503890228271485	0.9902440185546875	0.000477171003818511	-0.0674645004272461	0.99943701171875	-0.01093280029296875	-0.04901549911499024	1.0236400146484375	-0.015235400199890137	-0.01095930004119873	1.0406600341796874	-0.00950210952758789	-0.017467199325561525	1.0144299926757812	0.006674739837646484	-0.015935400009155273	1.0042000122070311	0.01153339958190918	-0.019218599319458008	0.9786900024414062	-0.03330820083618164	-0.02346299934387207	0.9796920166015625	-0.001371389985084533	-0.001842219948768615	1.0161900024414063	0.007332799911499023	0.001767410039901733	1.0078300170898438	0.013481399536132813	0.004517270088195801	0.9778200073242187	-0.03483919906616211	0.002664040088653564	0.975448974609375	-0.004898399829864502	0.013044699668884278	1.02152001953125	0.005554769992828369	0.017907800674438475	1.01752001953125	0.017391599655151368	0.024441299438476564	0.9935170288085937	-0.02870330047607422	0.027615800857543945	0.9810430297851562	-0.008678669929504395	0.0303931999206543	1.024010009765625	0.004985650062561035	0.035016700744628905	1.0171799926757812	0.011442099571228027	0.04456150054931641	0.998698974609375	-0.024011899948120117	0.05049340057373047	0.9906740112304687	-0.03832619857788086	0.014768699645996093	1.0619200439453125
11	0.36666666666666664	-0.003433500051498413	-0.09496340179443359	0.9900750122070312	0.000472095996141433	-0.0674175033569336	0.9993319702148438	-0.011055299758911133	-0.04895800018310547	1.0236199951171876	-0.015041299819946289	-0.011023300170898438	1.0405699462890625	-0.009405909538269043	-0.01743829917907715	1.014260009765625	0.0067714500427246095	-0.015913399696350097	1.004260009765625	0.011520099639892579	-0.019080900192260743	0.9786420288085937	-0.03330149841308594	-0.023421699523925782	0.9796420288085937	-0.001356709957122802	-0.001762079954147338	1.016	0.007348609924316406	0.0018276100158691401	1.0077899780273438	0.013537599563598632	0.004638209819793702	0.978114013671875	-0.034854698181152347	0.0027716000080108645	0.9753560180664063	-0.005060949802398682	0.01309529972076416	1.021739990234375	0.005538579940795899	0.01797529983520508	1.0175399780273438	0.017300500869750976	0.02458489990234375	0.9932329711914063	-0.028752099990844725	0.02770919990539551	0.9809879760742187	-0.008874110221862793	0.030685300827026366	1.0239600219726563	0.005067009925842286	0.03504100036621094	1.0166699829101562	0.011444100379943848	0.04465079879760742	0.9987650146484375	-0.02401989936828613	0.05059749984741211	0.9906619873046875	-0.038625499725341794	0.014728699684143066	1.06177001953125
12	0.4	-0.003592789888381958	-0.09500769805908203	0.9901690063476563	0.000323444992303848	-0.0674843978881836	0.9994520263671876	-0.011110699653625489	-0.04902330017089844	1.0236500244140625	-0.015411000251770019	-0.010979100227355957	1.0406600341796874	-0.009499690055847169	-0.017394500732421873	1.0146400146484376	0.006724649906158447	-0.01597760009765625	1.0044500122070312	0.011463899612426758	-0.019209699630737306	0.9787509765625	-0.03343999862670898	-0.023426200866699217	0.97977001953125	-0.001539999961853027	-0.001775670051574707	1.0164400024414062	0.00729636001586914	0.001812579989433288	1.0078699951171874	0.013534700393676758	0.0045604901313781735	0.9779149780273437	-0.03489590072631836	0.002766170024871826	0.9753070068359375	-0.005596290111541748	0.013388899803161622	1.0232100219726563	0.005476510047912598	0.01787700080871582	1.0174400024414063	0.017286100387573243	0.024494800567626953	0.9935609741210938	-0.02866860008239746	0.027698299407958985	0.9809840087890624	-0.00884370994567871	0.030917299270629882	1.0236300048828124	0.0050346999168396	0.03490190124511719	1.0165900268554688	0.011538999557495117	0.04454880142211914	0.998718017578125	-0.02389970016479492	0.05056129837036133	0.9906669921875	-0.03830289840698242	0.014673000335693359	1.06156005859375
13	0.43333333333333335	-0.0033670198917388912	-0.09494249725341797	0.9902659912109375	0.00045704698562622003	-0.06741179656982423	0.999447998046875	-0.011055700302124024	-0.04891790008544922	1.0238300170898438	-0.015296699523925782	-0.011033699989318848	1.0406700439453125	-0.009511219978332519	-0.017218599319458006	1.0145599975585937	0.006645510196685791	-0.01588570022583008	1.0046099853515624	0.011457699775695801	-0.019174200057983398	0.9787459716796875	-0.03340700149536133	-0.02341580009460449	0.9796749877929688	-0.0014039900302886962	-0.001757840037345886	1.0162100219726562	0.0072326698303222655	0.001813519954681396	1.007989990234375	0.013354599952697754	0.004634749889373779	0.9780789794921875	-0.035000598907470704	0.00275642991065979	0.975385009765625	-0.0048483901023864745	0.013211299896240234	1.0230399780273438	0.005383840084075928	0.017935800552368163	1.0176900024414062	0.017229999542236328	0.02455389976501465	0.993594970703125	-0.0287721004486084	0.02772279930114746	0.9810830078125	-0.00901158046722412	0.031131799697875977	1.0235700073242187	0.00505994987487793	0.035123699188232424	1.0173099975585937	0.011410900115966797	0.04454949951171875	0.9987760009765625	-0.024068399429321288	0.05063150024414063	0.9907310180664063	-0.03861299896240234	0.014824600219726562	1.06193994140625
14	0.4666666666666667	-0.003437530040740967	-0.09485659790039062	0.9902420043945312	0.00039695501327514606	-0.0673302001953125	0.9994639892578125	-0.01106779956817627	-0.04885810089111328	1.0237899780273438	-0.015500100135803222	-0.010874500274658203	1.0406700439453125	-0.009638429641723633	-0.01730500030517578	1.0146599731445312	0.006541299819946289	-0.015893099784851074	1.004510009765625	0.01143910026550293	-0.01902739906311035	0.97889501953125	-0.03345899963378906	-0.023367900848388672	0.9796749877929688	-0.0014941600561141962	-0.001673499941825866	1.016219970703125	0.00717087984085083	0.00193953001499176	1.00802001953125	0.013394700050354005	0.004675439834594727	0.9781209716796875	-0.035053298950195315	0.0028455300331115723	0.97543798828125	-0.005294579982757569	0.013201499938964844	1.0219299926757812	0.005365119934082031	0.01803660011291504	1.0176900024414062	0.017204299926757812	0.024680400848388673	0.9936539916992188	-0.02879010009765625	0.027803699493408204	0.9811090087890625	-0.008739359855651855	0.030640300750732423	1.024	0.005061649799346924	0.03506669998168945	1.0169000244140625	0.01131309986114502	0.0447057991027832	0.9988469848632813	-0.024023700714111328	0.050672698974609375	0.9907239990234376	-0.038506099700927734	0.01478159999847412	1.0620899658203125
15	0.5	-0.0037167201042175293	-0.09480439758300781	0.9901530151367187	0.00015176899731159202	-0.06726609802246093	0.9994660034179688	-0.011361300468444824	-0.0487327995300293	1.023760009765625	-0.015360799789428711	-0.010846099853515624	1.040699951171875	-0.009704910278320312	-0.017121799468994142	1.0146599731445312	0.006495880126953125	-0.015737000465393065	1.0040499877929687	0.01107040023803711	-0.018997800827026366	0.9787109985351562	-0.03375	-0.02326460075378418	0.9797550048828125	-0.001807760000228881	-0.00163273000717163	1.0163300170898437	0.007046080112457275	0.002021650075912475	1.0078499755859376	0.01306470012664795	0.004773099899291992	0.97810400390625	-0.03524860000610352	0.0029558300971984862	0.9754439697265626	-0.005347149848937988	0.013211700439453125	1.0216500244140625	0.005223700046539307	0.018104900360107423	1.0176699829101563	0.016949600219726562	0.024768600463867186	0.9934199829101562	-0.02904640007019043	0.027904800415039063	0.9811170043945312	-0.009029769897460937	0.030756900787353516	1.024030029296875	0.004714660167694092	0.03527999877929688	1.0174600219726562	0.011099399566650391	0.0447869987487793	0.998510009765625	-0.02427589988708496	0.050772701263427734	0.990718994140625	-0.03887910079956055	0.014924699783325196	1.0614300537109376
16	0.5333333333333333	-0.004003339767456054	-0.09462059783935547	0.989958984375	-0.000159950003027915	-0.06708489990234374	0.999281005859375	-0.011648300170898438	-0.04869430160522461	1.023469970703125	-0.015572500228881837	-0.010758500099182128	1.0405799560546876	-0.009917710304260254	-0.017032899856567384	1.0145599975585937	0.006224219799041748	-0.015694100379943846	1.0041900024414063	0.010832099914550782	-0.018847999572753907	0.9785889892578125	-0.033976898193359376	-0.02305780029296875	0.979614990234375	-0.001867969989776611	-0.001495290040969848	1.015780029296875	0.00683991003036499	0.002046469926834106	1.007760009765625	0.012925299644470215	0.004882219791412353	0.9781240234375	-0.035440898895263674	0.003185460090637207	0.9754140014648438	-0.0056334400177001955	0.013273300170898438	1.02175	0.004997940063476563	0.018105499267578123	1.0172000122070313	0.016800399780273437	0.024827499389648438	0.9933140258789063	-0.029218799591064454	0.028119199752807616	0.981051025390625	-0.009124950408935547	0.03043980026245117	1.024199951171875	0.004431560039520264	0.03525949859619141	1.0171500244140625	0.011011400222778321	0.044830001831054685	0.9984390258789062	-0.02436400032043457	0.050986698150634766	0.9906890258789063	-0.03924369812011719	0.01487559986114502	1.0618599853515625
